#!OML:ASF X:\für Bonn\!DataBase\2005_08_10_Bjorn_Final\c3d\bjorn.ASF
:FULLY-SPECIFIED
:DEGREES
47
root 23.205 19.3593 -1.89455 -14.8034 -79.4457 -348.15
lowerback 15.1006 2.95491 11.3095
upperback 17.1672 3.36698 1.21297
thorax 11.4603 2.4151 -5.15614
lowerneck -0.142431 -5.52865 4.39689
upperneck 18.3845 -7.95365 -0.744706
head 5.37229 -3.71667 -1.32026
rclavicle 8.26944e-014 -2.06736e-014
rhumerus 2.04549 -1.73422 -80.5539
rradius 34.5677
rwrist -7.36481
rhand -13.0513 11.5955
rfingers 7.12502
rthumb 13.0438 -17.9767
lclavicle 8.26944e-014 -2.06736e-014
lhumerus -15.2631 -5.30128 89.2842
lradius 29.5949
lwrist -27.5025
lhand -20.3706 -11.0395
lfingers 7.12502
lthumb 5.98199 18.8561
rfemur -14.101 -14.2165 16.1191
rtibia 29.2071
rfoot -4.13811 18.2442
rtoes 3.01254
lfemur -14.8757 8.5651 -13.0208
ltibia 36.8449
lfoot -9.9103 1.20822
ltoes -19.2085
48
root 23.2052 19.3574 -1.90376 -14.9059 -79.6294 -348.155
lowerback 15.819 2.98696 11.2026
upperback 17.4514 3.41052 1.21498
thorax 11.42 2.41257 -5.12417
lowerneck -0.203198 -5.53439 4.36248
upperneck 17.9005 -7.94401 -0.637394
head 5.23747 -3.71163 -1.27116
rclavicle -8.18993e-014 2.38542e-014
rhumerus 2.84561 -1.53303 -80.4588
rradius 34.2728
rwrist -7.25587
rhand -13.0122 11.6088
rfingers 7.12502
rthumb 13.0815 -17.961
lclavicle -8.18993e-014 2.38542e-014
lhumerus -14.6622 -6.28936 89.2622
lradius 29.9889
lwrist -27.0013
lhand -20.9251 -11.1368
lfingers 7.12502
lthumb 5.44666 18.7732
rfemur -14.0458 -14.3164 16.1763
rtibia 29.2768
rfoot -4.0511 18.5284
rtoes 3.47463
lfemur -14.72 8.34937 -12.7958
ltibia 36.4774
lfoot -9.75958 1.37018
ltoes -19.7824
49
root 23.2078 19.3524 -1.91293 -15.1568 -79.8196 -348.02
lowerback 16.5768 3.00965 11.062
upperback 17.7407 3.43862 1.20194
thorax 11.3624 2.39781 -5.09266
lowerneck -0.298107 -5.50516 4.29786
upperneck 17.4916 -7.90247 -0.464183
head 5.13703 -3.68797 -1.19934
rclavicle 4.6118e-014 -3.18055e-014
rhumerus 3.67202 -1.31507 -80.3837
rradius 33.9875
rwrist -7.16803
rhand -12.9523 11.6162
rfingers 7.12502
rthumb 13.1392 -17.9499
lclavicle 4.6118e-014 -3.18055e-014
lhumerus -14.0356 -7.1622 89.198
lradius 30.3639
lwrist -26.5147
lhand -21.4294 -11.1634
lfingers 7.12502
lthumb 4.95975 18.7585
rfemur -13.9912 -14.4108 16.2039
rtibia 29.3515
rfoot -3.97162 18.8
rtoes 3.79099
lfemur -14.5143 8.08062 -12.584
ltibia 36.1315
lfoot -9.63787 1.51859
ltoes -19.4804
50
root 23.2118 19.3474 -1.92095 -15.3775 -80.0171 -347.885
lowerback 17.2932 3.05027 10.9056
upperback 18.0551 3.47418 1.20249
thorax 11.3625 2.38524 -5.03473
lowerneck -0.403403 -5.47905 4.25009
upperneck 17.0257 -7.86464 -0.27648
head 5.02077 -3.66513 -1.12521
rclavicle 1.59028e-014 2.06736e-014
rhumerus 4.57187 -1.04084 -80.2495
rradius 33.6743
rwrist -7.16165
rhand -12.9272 11.6325
rfingers 7.12502
rthumb 13.1634 -17.932
lclavicle 1.59028e-014 2.06736e-014
lhumerus -13.3448 -8.052 89.1457
lradius 30.7618
lwrist -25.991
lhand -21.935 -11.0861
lfingers 7.12502
lthumb 4.47152 18.8467
rfemur -13.9937 -14.5399 16.2467
rtibia 29.4315
rfoot -3.8682 19.1117
rtoes 3.98697
lfemur -14.3304 7.85364 -12.3852
ltibia 35.8013
lfoot -9.48849 1.68087
ltoes -19.0407
51
root 23.2183 19.3408 -1.931 -15.3909 -80.2166 -347.993
lowerback 18.0703 3.06498 10.7518
upperback 18.3897 3.47108 1.20808
thorax 11.3536 2.35037 -4.97353
lowerneck -0.483562 -5.40704 4.17349
upperneck 16.4893 -7.76368 -0.0521077
head 4.88254 -3.61316 -1.03095
rclavicle 6.67916e-014 -4.29375e-014
rhumerus 5.52934 -0.690664 -80.1208
rradius 33.3595
rwrist -7.16968
rhand -12.8893 11.6423
rfingers 7.12502
rthumb 13.1999 -17.9198
lclavicle 6.67916e-014 -4.29375e-014
lhumerus -12.6322 -8.96654 89.021
lradius 31.2079
lwrist -25.2681
lhand -22.4472 -10.987
lfingers 7.12502
lthumb 3.97688 18.9556
rfemur -13.9634 -14.6018 16.3315
rtibia 29.5241
rfoot -3.84069 19.3594
rtoes 4.11863
lfemur -14.1072 7.63055 -12.1255
ltibia 35.4911
lfoot -9.32517 1.80816
ltoes -17.8237
52
root 23.225 19.3341 -1.93894 -15.2649 -80.4266 -348.209
lowerback 18.7948 3.08408 10.5996
upperback 18.7471 3.45685 1.24
thorax 11.4044 2.30856 -4.87917
lowerneck -0.589465 -5.34827 4.08791
upperneck 15.9237 -7.67119 0.11866
head 4.73743 -3.56932 -0.952555
rclavicle -7.31528e-014 -3.33958e-014
rhumerus 6.57217 -0.336122 -79.9462
rradius 33.0188
rwrist -7.1597
rhand -12.8096 11.5696
rfingers 7.12502
rthumb 13.2767 -17.9875
lclavicle -7.31528e-014 -3.33958e-014
lhumerus -11.8039 -9.72598 88.9189
lradius 31.5254
lwrist -24.7077
lhand -23.0915 -10.9337
lfingers 7.12502
lthumb 3.35475 19.0196
rfemur -13.9738 -14.6322 16.4413
rtibia 29.6261
rfoot -3.75281 19.5844
rtoes 4.47461
lfemur -13.9253 7.40341 -11.8683
ltibia 35.1992
lfoot -9.07448 2.03942
ltoes -16.548
53
root 23.2347 19.3299 -1.94749 -15.1932 -80.6278 -348.335
lowerback 19.5347 3.10325 10.4481
upperback 19.094 3.44403 1.23588
thorax 11.4431 2.26961 -4.8265
lowerneck -0.578057 -5.29085 4.09168
upperneck 14.8655 -7.57331 0.304331
head 4.91696 -3.52225 -0.939891
rclavicle -4.6118e-014 1.27222e-014
rhumerus 7.61637 -0.0374731 -79.8302
rradius 32.7026
rwrist -7.06029
rhand -12.7055 11.4476
rfingers 7.12502
rthumb 13.3771 -18.103
lclavicle -4.6118e-014 1.27222e-014
lhumerus -10.9325 -10.5227 88.7334
lradius 31.7892
lwrist -24.0841
lhand -23.8271 -10.9544
lfingers 7.12502
lthumb 2.64437 19.009
rfemur -14.0365 -14.6643 16.5454
rtibia 29.7341
rfoot -3.68312 19.7836
rtoes 4.70828
lfemur -13.8085 7.29932 -11.6529
ltibia 34.9348
lfoot -8.76209 2.31754
ltoes -15.7873
54
root 23.2452 19.3257 -1.95633 -15.029 -80.8346 -348.455
lowerback 20.1735 3.13391 10.2435
upperback 19.4489 3.42327 1.25157
thorax 11.5401 2.2196 -4.71635
lowerneck -0.638283 -5.22959 4.07674
upperneck 14.2323 -7.45957 0.36525
head 4.69691 -3.47309 -0.898076
rclavicle -5.08889e-014 1.43125e-014
rhumerus 8.72575 0.33522 -79.6479
rradius 32.3844
rwrist -7.10872
rhand -12.6165 11.3539
rfingers 7.12502
rthumb 13.4628 -18.191
lclavicle -5.08889e-014 1.43125e-014
lhumerus -9.94547 -11.2245 88.5375
lradius 31.9526
lwrist -23.5152
lhand -24.6397 -11.0048
lfingers 7.12502
lthumb 1.85953 18.9669
rfemur -14.2217 -14.6745 16.6809
rtibia 29.8477
rfoot -3.60397 19.9693
rtoes 5.10751
lfemur -13.807 7.27206 -11.4648
ltibia 34.7002
lfoot -8.39693 2.6382
ltoes -15.1499
55
root 23.2575 19.3225 -1.96369 -15.1093 -81.0085 -348.248
lowerback 20.7707 3.17682 10.0359
upperback 19.7788 3.41975 1.22252
thorax 11.6379 2.18302 -4.6546
lowerneck -0.620078 -5.20314 4.17483
upperneck 13.5427 -7.3866 0.37863
head 4.4361 -3.44246 -0.888885
rclavicle -3.65764e-014 1.59028e-014
rhumerus 9.83444 0.53348 -79.5459
rradius 32.0187
rwrist -6.97251
rhand -12.5385 11.352
rfingers 7.12502
rthumb 13.5381 -18.1879
lclavicle -3.65764e-014 1.59028e-014
lhumerus -8.90356 -11.9893 88.2677
lradius 32.0469
lwrist -22.9273
lhand -25.4736 -11.0877
lfingers 7.12502
lthumb 1.05417 18.8894
rfemur -14.5127 -14.6769 16.7702
rtibia 29.9819
rfoot -3.5293 20.1174
rtoes 5.29317
lfemur -13.9126 7.26908 -11.3714
ltibia 34.5084
lfoot -8.02661 3.01714
ltoes -14.6752
56
root 23.2707 19.3202 -1.97106 -14.8714 -81.1829 -348.296
lowerback 21.3493 3.20998 9.83176
upperback 20.0729 3.40408 1.21582
thorax 11.6984 2.13644 -4.56905
lowerneck -0.570046 -5.17976 4.25109
upperneck 12.8795 -7.31168 0.332024
head 4.18039 -3.41501 -0.895619
rclavicle 2.06736e-014 -2.54444e-014
rhumerus 10.9161 0.853508 -79.3763
rradius 31.6788
rwrist -7.02186
rhand -12.5018 11.3325
rfingers 7.12502
rthumb 13.5734 -18.205
lclavicle 2.06736e-014 -2.54444e-014
lhumerus -7.89854 -12.8 87.9823
lradius 32.1581
lwrist -22.2781
lhand -26.261 -11.0895
lfingers 7.12502
lthumb 0.293659 18.8901
rfemur -14.8907 -14.6679 16.924
rtibia 30.1333
rfoot -3.48209 20.26
rtoes 5.43964
lfemur -14.0974 7.2948 -11.2573
ltibia 34.3629
lfoot -7.62523 3.44705
ltoes -14.465
57
root 23.2855 19.3158 -1.97707 -14.458 -81.3587 -348.488
lowerback 21.9384 3.24204 9.69274
upperback 20.3342 3.40119 1.18479
thorax 11.7284 2.10624 -4.54896
lowerneck -0.425342 -5.17187 4.38929
upperneck 12.1622 -7.25588 0.294164
head 3.88829 -3.39586 -0.905736
rclavicle -9.54166e-015 5.32743e-014
rhumerus 11.9325 1.06167 -79.2623
rradius 31.3411
rwrist -6.99825
rhand -12.4364 11.3781
rfingers 7.12502
rthumb 13.6364 -18.1552
lclavicle -9.54166e-015 5.32743e-014
lhumerus -6.88876 -13.8103 87.5959
lradius 32.2454
lwrist -21.4656
lhand -26.8828 -11.0717
lfingers 7.12502
lthumb -0.306872 18.9078
rfemur -15.3206 -14.6225 17.1075
rtibia 30.2992
rfoot -3.40562 20.3505
rtoes 5.71752
lfemur -14.3389 7.35447 -11.1328
ltibia 34.2741
lfoot -7.26491 3.89994
ltoes -14.0513
58
root 23.3012 19.3125 -1.98024 -13.8048 -81.5301 -348.825
lowerback 22.4679 3.26848 9.59914
upperback 20.5605 3.39793 1.14972
thorax 11.7527 2.08314 -4.55633
lowerneck -0.252486 -5.16824 4.52314
upperneck 11.4459 -7.20593 0.257124
head 3.59552 -3.38037 -0.914122
rclavicle -4.77083e-014 5.48646e-014
rhumerus 12.9018 1.23822 -79.1617
rradius 31.032
rwrist -6.94185
rhand -12.4238 11.4422
rfingers 7.12502
rthumb 13.6486 -18.0903
lclavicle -4.77083e-014 5.48646e-014
lhumerus -5.8612 -14.8528 87.1728
lradius 32.3465
lwrist -20.6903
lhand -27.4041 -10.9387
lfingers 7.12502
lthumb -0.810374 19.0395
rfemur -15.8723 -14.6134 17.3221
rtibia 30.4675
rfoot -3.28694 20.4511
rtoes 6.14224
lfemur -14.7005 7.43253 -11.0243
ltibia 34.2455
lfoot -6.94325 4.38443
ltoes -13.8314
59
root 23.3197 19.309 -1.98274 -12.781 -81.689 -349.482
lowerback 22.9757 3.29217 9.49594
upperback 20.775 3.38495 1.16924
thorax 11.7668 2.04723 -4.49507
lowerneck -0.0543372 -5.15742 4.53572
upperneck 10.7012 -7.14446 0.251407
head 3.29791 -3.36376 -0.890403
rclavicle 7.95139e-015 -1.03368e-014
rhumerus 13.8654 1.48237 -78.9506
rradius 30.7661
rwrist -7.04251
rhand -12.3772 11.4964
rfingers 7.12502
rthumb 13.6935 -18.0331
lclavicle 7.95139e-015 -1.03368e-014
lhumerus -4.81412 -15.8253 86.7796
lradius 32.4582
lwrist -19.9335
lhand -27.8538 -10.7462
lfingers 7.12502
lthumb -1.24473 19.2299
rfemur -16.4909 -14.6095 17.5995
rtibia 30.647
rfoot -3.19729 20.5564
rtoes 6.39678
lfemur -15.1575 7.55082 -10.8959
ltibia 34.273
lfoot -6.5895 4.88882
ltoes -13.7075
